Coordinates
version=1
nRows=11
nColumns=40
inDegrees=yes

Units are S.I. units (second, meters, Newtons, ...)
If the header above contains a line with 'inDegrees', this indicates whether rotational values are in degrees (yes) or radians (no).

endheader
time	pelvis_tilt	pelvis_list	pelvis_rotation	pelvis_tx	pelvis_ty	pelvis_tz	hip_flexion_r	hip_adduction_r	hip_rotation_r	knee_angle_r	knee_angle_r_beta	ankle_angle_r	subtalar_angle_r	mtp_angle_r	hip_flexion_l	hip_adduction_l	hip_rotation_l	knee_angle_l	knee_angle_l_beta	ankle_angle_l	subtalar_angle_l	mtp_angle_l	lumbar_extension	lumbar_bending	lumbar_rotation	arm_flex_r	arm_add_r	arm_rot_r	elbow_flex_r	pro_sup_r	wrist_flex_r	wrist_dev_r	arm_flex_l	arm_add_l	arm_rot_l	elbow_flex_l	pro_sup_l	wrist_flex_l	wrist_dev_l
      4.04000000	    -14.20631909	     -2.97169646	      1.76058875	     -0.26259854	      0.89895450	     -0.94208943	     32.98667676	    -16.76046978	    -23.08342512	     42.22177569	      0.73690900	      9.39856927	      0.00000000	      0.00000000	     36.20444733	    -18.57722107	    -11.72820270	     44.50369628	      0.77673603	     11.73499146	      0.00000000	      0.00000000	    -10.81075494	      2.55656063	    -10.96760698	     -9.93173748	    -51.07124118	     47.08821283	     97.38914171	     87.23360513	      0.00000000	      0.00000000	    -38.21459048	    -34.35503768	     15.64209635	     91.86556613	     87.30943839	      0.00000000	      0.00000000
      4.04500000	    -13.50598720	     -2.81198025	      1.82951445	     -0.25697222	      0.91299631	     -0.94240771	     30.25147082	    -16.16934904	    -23.66425524	     38.44177309	      0.67093551	      6.08804930	      0.00000000	      0.00000000	     33.39828429	    -17.89012117	    -11.69756056	     41.00470992	      0.71566720	      8.33825958	      0.00000000	      0.00000000	    -10.55256513	      2.37993446	    -11.19027887	    -10.94940364	    -51.28225123	     46.36683202	     98.02326248	     87.24594741	      0.00000000	      0.00000000	    -39.30018565	    -34.10785517	     14.63438648	     92.55367033	     87.31617445	      0.00000000	      0.00000000
      4.05000000	    -12.75762400	     -2.79695253	      1.90414843	     -0.25100261	      0.92729323	     -0.94262004	     27.37346080	    -15.35490907	    -24.14462101	     34.42386149	      0.60080972	      1.53169028	      0.00000000	      0.00000000	     30.49880384	    -17.36582587	    -12.05831063	     37.21926885	      0.64959879	      4.83160517	      0.00000000	      0.00000000	    -10.29946925	      2.34665662	    -11.44363965	    -12.02249056	    -51.53973917	     45.59310878	     98.62819997	     87.25247531	      0.00000000	      0.00000000	    -40.41728191	    -33.85514555	     13.59661194	     93.23882110	     87.30870940	      0.00000000	      0.00000000
      4.05500000	    -11.89571459	     -2.68241565	      1.95388840	     -0.24528159	      0.94193305	     -0.94284558	     24.33358259	    -14.57290376	    -24.54640947	     30.18282251	      0.52678963	     -2.55446620	      0.00000000	      0.00000000	     27.42078311	    -16.77868084	    -12.63008351	     33.27103482	      0.58068910	      1.04282655	      0.00000000	      0.00000000	    -10.33539474	      2.24219463	    -11.51681138	    -13.41262535	    -51.51997671	     44.47205549	     98.99294177	     87.24403531	      0.00000000	      0.00000000	    -41.40790833	    -33.55146137	     12.46865352	     93.70520545	     87.30965672	      0.00000000	      0.00000000
      4.06000000	    -11.10540172	     -2.79471533	      2.03154110	     -0.23891578	      0.95657444	     -0.94303168	     21.28039898	    -13.51896033	    -24.99134560	     25.82909460	      0.45080274	     -6.14741132	      0.00000000	      0.00000000	     24.39847546	    -16.38314343	    -13.03570088	     29.22546895	      0.51008066	     -3.02412470	      0.00000000	      0.00000000	    -10.30184780	      2.45566600	     -9.36836969	    -21.00326990	    -50.10504160	     36.34854209	     99.97869262	     87.34817670	      0.00000000	      0.00000000	    -39.54094427	    -35.32072362	     14.59835425	     93.96338449	     87.38172333	      0.00000000	      0.00000000
      4.06500000	    -10.54447949	     -2.64623212	      2.04774255	     -0.23334790	      0.97114536	     -0.94324877	     18.65139537	    -12.74763808	    -24.93545428	     21.51019104	      0.37542366	    -11.19912496	      0.00000000	      0.00000000	     21.63467703	    -15.69994053	    -13.37397170	     25.06824699	      0.43752345	     -7.78147657	      0.00000000	      0.00000000	     -9.99357060	      2.30371008	     -9.57418386	    -21.82882607	    -50.08460550	     35.87592677	    100.29090950	     87.35496594	      0.00000000	      0.00000000	    -40.31918565	    -35.00713893	     13.69158255	     94.18711139	     87.34609099	      0.00000000	      0.00000000
      4.07000000	     -9.99769172	     -2.49812279	      2.05222549	     -0.22779428	      0.98561399	     -0.94340505	     16.09152202	    -12.01131899	    -24.70389393	     17.23211781	      0.30075719	    -16.51998136	      0.00000000	      0.00000000	     18.94367905	    -15.00753684	    -13.63180501	     20.89756279	      0.36473128	    -12.80572021	      0.00000000	      0.00000000	     -9.68892743	      2.14618795	     -9.63159301	    -22.87473666	    -49.96325054	     35.26845879	    100.58619681	     87.35655686	      0.00000000	      0.00000000	    -41.18436422	    -34.72511684	     12.69192650	     94.57730521	     87.34225447	      0.00000000	      0.00000000
      4.07500000	     -9.50538236	     -2.37051631	      2.12215228	     -0.22240061	      1.00016605	     -0.94360573	     13.66525659	    -11.33730415	    -24.32294711	     13.08082342	      0.22830344	    -22.00815308	      0.00000000	      0.00000000	     16.42135422	    -14.32865714	    -13.82162404	     16.72593091	      0.29192256	    -18.21116747	      0.00000000	      0.00000000	     -9.36824938	      1.99695776	     -9.63238056	    -24.00190020	    -49.77101219	     34.55067742	    100.80587200	     87.35992677	      0.00000000	      0.00000000	    -41.85716427	    -34.47392045	     11.79909606	     94.94411501	     87.33648024	      0.00000000	      0.00000000
      4.08000000	     -8.99617392	     -2.23374734	      2.16128418	     -0.21715015	      1.01466620	     -0.94373044	     11.33853469	    -10.75149743	    -23.82630096	      9.08265642	      0.15852226	    -27.33894587	      0.00000000	      0.00000000	     14.01883793	    -13.70941121	    -14.04081975	     12.76165458	      0.22273289	    -23.43828918	      0.00000000	      0.00000000	     -9.07923505	      1.86211430	     -9.56590531	    -25.17675504	    -49.47435977	     33.73114200	    101.02683192	     87.36407409	      0.00000000	      0.00000000	    -42.42080358	    -34.41419149	     11.20748238	     95.23187912	     87.34329075	      0.00000000	      0.00000000
      4.08500000	     -8.62520205	     -2.06719352	      2.15204339	     -0.21214743	      1.02915773	     -0.94382498	      9.49882724	    -10.35209360	    -23.29612150	      5.72956466	      0.09999977	    -32.76228033	      0.00000000	      0.00000000	     11.94651850	    -13.11464264	    -14.53740898	      9.06498311	      0.15821380	    -28.50393691	      0.00000000	      0.00000000	     -8.71156790	      1.69033310	     -9.31332072	    -26.47479674	    -49.04874130	     32.70496739	    101.18962312	     87.36460085	      0.00000000	      0.00000000	    -42.66290405	    -34.49039450	     10.94131104	     95.48713629	     87.34977456	      0.00000000	      0.00000000
      4.09000000	     -8.46687820	     -1.86719390	      2.29394562	     -0.20740008	      1.04343524	     -0.94432946	      8.16050206	    -10.20810586	    -23.22818751	      3.07192196	      0.05361515	    -36.39070500	      0.00000000	      0.00000000	     10.32723892	    -12.45474227	    -15.01762312	      5.61037613	      0.09791954	    -32.94884510	      0.00000000	      0.00000000	     -8.17144941	      1.58456885	     -7.84187313	    -30.85077043	    -47.30826933	     28.22059922	    101.44718830	     87.39284402	      0.00000000	      0.00000000	    -40.93534152	    -35.99435766	     12.98459471	     95.37971281	     87.34451109	      0.00000000	      0.00000000
